# Blender 3.5.1
# www.blender.org
o Plane_0
v 0.000000 -0.052355 -1.919208
v -4.455657 -0.150592 -1.919208
v -4.719277 0.380178 1.922317
v 0.000000 -0.181937 2.536450
v 0.000000 -0.181937 2.536450
v -4.719277 0.380178 1.922317
v -4.203970 -1.195323 6.839582
v 0.000000 -0.983805 6.978325
v 0.000000 -0.983805 6.978325
v -4.203970 -1.195323 6.839582
v -4.077076 -2.290391 11.632307
v -0.208661 -1.153053 9.609988
v -0.208661 -1.153053 9.609988
v -4.077076 -2.290391 11.632307
v -3.773791 -4.957853 13.017217
v 0.453373 -5.196179 12.419218
v -4.455657 -0.150592 -1.919208
v -8.897532 -0.756154 -1.919207
v -8.758873 -1.005487 2.284763
v -4.719277 0.380178 1.922317
v -4.719277 0.380178 1.922317
v -8.758873 -1.005487 2.284763
v -8.374914 -1.741135 6.463691
v -4.203970 -1.195323 6.839582
v -4.203970 -1.195323 6.839582
v -8.374914 -1.741135 6.463691
v -8.009779 -2.622921 10.886154
v -4.077076 -2.290391 11.632307
v -4.077076 -2.290391 11.632307
v -8.009779 -2.622921 10.886154
v -7.481951 -5.150883 15.725267
v -3.773791 -4.957853 13.017217
v -8.897532 -0.756154 -1.919207
v -12.116687 -1.961478 -2.511659
v -14.032954 -2.528214 0.868593
v -8.758873 -1.005487 2.284763
v -8.758873 -1.005487 2.284763
v -14.032954 -2.528214 0.868593
v -12.147696 -3.099488 5.812414
v -8.374914 -1.741135 6.463691
v -8.374914 -1.741135 6.463691
v -12.147696 -3.099488 5.812414
v -11.243894 -3.714713 9.446203
v -8.009779 -2.622921 10.886154
v -8.009779 -2.622921 10.886154
v -11.243894 -3.714713 9.446203
v -9.685871 -5.417024 12.587710
v -7.481951 -5.150883 15.725267
v -12.116687 -1.961478 -2.511659
v -15.465510 -4.232123 -1.994335
v -16.752602 -5.832919 1.536678
v -14.032954 -2.528214 0.868593
v -14.032954 -2.528214 0.868593
v -16.752602 -5.832919 1.536678
v -13.887067 -5.978216 5.666445
v -12.147696 -3.099488 5.812414
v -12.147696 -3.099488 5.812414
v -13.887067 -5.978216 5.666445
v -14.602632 -5.865439 9.525702
v -11.243894 -3.714713 9.446203
v -11.243894 -3.714713 9.446203
v -14.602632 -5.865439 9.525702
v -12.855865 -5.864683 11.152212
v -9.685871 -5.417024 12.587710
v 0.000000 -0.052355 -1.919208
v 0.000000 -0.181937 2.536450
v 4.377167 0.279671 1.993999
v 4.455657 -0.174795 -1.919208
v 4.455657 -0.174795 -1.919208
v 4.377167 0.279671 1.993999
v 8.758873 -1.105489 2.284847
v 8.897532 -0.944141 -1.919207
v 8.897532 -0.944141 -1.919207
v 8.758873 -1.105489 2.284847
v 13.315456 -3.620678 3.243527
v 12.669895 -1.340034 -1.725589
v 12.669895 -1.340034 -1.725589
v 13.315456 -3.620678 3.243527
v 15.971993 -5.843927 1.379279
v 17.844561 -5.429631 -1.134902
v 0.000000 -0.181937 2.536450
v 0.000000 -0.983805 6.978325
v 4.203970 -1.075152 6.839582
v 4.377167 0.279671 1.993999
v 4.377167 0.279671 1.993999
v 4.203970 -1.075152 6.839582
v 8.367015 -1.860886 6.447809
v 8.758873 -1.105489 2.284847
v 8.758873 -1.105489 2.284847
v 8.367015 -1.860886 6.447809
v 11.580288 -3.007469 5.722496
v 13.315456 -3.620678 3.243527
v 13.315456 -3.620678 3.243527
v 11.580288 -3.007469 5.722496
v 16.599909 -6.178220 5.789557
v 15.971993 -5.843927 1.379279
v 0.000000 -0.983805 6.978325
v -0.208661 -1.153053 9.609988
v 3.763791 -3.229575 11.288013
v 4.203970 -1.075152 6.839582
v 4.203970 -1.075152 6.839582
v 3.763791 -3.229575 11.288013
v 7.610189 -2.247786 9.420151
v 8.367015 -1.860886 6.447809
v 8.367015 -1.860886 6.447809
v 7.610189 -2.247786 9.420151
v 11.821386 -3.756647 9.058294
v 11.580288 -3.007469 5.722496
v 11.580288 -3.007469 5.722496
v 11.821386 -3.756647 9.058294
v 14.813813 -6.455034 7.358336
v 16.599909 -6.178220 5.789557
v -0.208661 -1.153053 9.609988
v 0.453373 -5.196179 12.419218
v 2.757379 -5.227188 15.886532
v 3.763791 -3.229575 11.288013
v 3.763791 -3.229575 11.288013
v 2.757379 -5.227188 15.886532
v 7.554053 -5.306517 13.817657
v 7.610189 -2.247786 9.420151
v 7.610189 -2.247786 9.420151
v 7.554053 -5.306517 13.817657
v 11.127336 -5.525682 14.391285
v 11.821386 -3.756647 9.058294
v 11.821386 -3.756647 9.058294
v 11.127336 -5.525682 14.391285
v 12.754687 -6.471757 11.717016
v 14.813813 -6.455034 7.358336
v 0.000000 -0.052355 -1.919208
v 4.455657 -0.174795 -1.919208
v 4.388849 0.757833 -6.308056
v 0.000000 -0.166812 -6.374865
v 0.000000 -0.166812 -6.374865
v 4.388849 0.757833 -6.308056
v 4.251618 -0.759012 -10.780101
v 0.000000 -0.890696 -10.816657
v 0.000000 -0.890696 -10.816657
v 4.251618 -0.759012 -10.780101
v 5.166767 -3.663707 -15.662491
v 0.529341 -2.651917 -14.647676
v 0.529341 -2.651917 -14.647676
v 5.166767 -3.663707 -15.662491
v 4.174305 -5.192401 -18.305582
v 0.211350 -5.249965 -16.279398
v 4.455657 -0.174795 -1.919208
v 8.897532 -0.944141 -1.919207
v 8.758789 -1.179358 -6.123178
v 4.388849 0.757833 -6.308056
v 4.388849 0.757833 -6.308056
v 8.758789 -1.179358 -6.123178
v 8.557944 -0.372532 -10.546062
v 4.251618 -0.759012 -10.780101
v 4.251618 -0.759012 -10.780101
v 8.557944 -0.372532 -10.546062
v 7.834648 -2.720910 -12.848220
v 5.166767 -3.663707 -15.662491
v 5.166767 -3.663707 -15.662491
v 7.834648 -2.720910 -12.848220
v 7.253121 -4.868948 -16.505791
v 4.174305 -5.192401 -18.305582
v 8.897532 -0.944141 -1.919207
v 12.669895 -1.340034 -1.725589
v 15.066089 -2.062994 -7.371696
v 8.758789 -1.179358 -6.123178
v 8.758789 -1.179358 -6.123178
v 15.066089 -2.062994 -7.371696
v 12.407200 -2.532334 -9.764361
v 8.557944 -0.372532 -10.546062
v 8.557944 -0.372532 -10.546062
v 12.407200 -2.532334 -9.764361
v 12.308962 -3.934302 -13.398485
v 7.834648 -2.720910 -12.848220
v 7.834648 -2.720910 -12.848220
v 12.308962 -3.934302 -13.398485
v 10.195968 -5.068365 -16.348726
v 7.253121 -4.868948 -16.505791
v 12.669895 -1.340034 -1.725589
v 17.844561 -5.429631 -1.134902
v 17.328499 -5.109372 -6.019310
v 15.066089 -2.062994 -7.371696
v 15.066089 -2.062994 -7.371696
v 17.328499 -5.109372 -6.019310
v 17.426399 -5.381984 -10.685728
v 12.407200 -2.532334 -9.764361
v 12.407200 -2.532334 -9.764361
v 17.426399 -5.381984 -10.685728
v 14.510612 -5.371984 -14.519437
v 12.308962 -3.934302 -13.398485
v 12.308962 -3.934302 -13.398485
v 14.510612 -5.371984 -14.519437
v 12.468462 -5.610058 -17.145218
v 10.195968 -5.068365 -16.348726
v 0.000000 -0.052355 -1.919208
v 0.000000 -0.166812 -6.374865
v -4.388849 -0.273453 -6.308056
v -4.455657 -0.150592 -1.919208
v -4.455657 -0.150592 -1.919208
v -4.388849 -0.273453 -6.308056
v -8.758789 -0.845064 -6.123178
v -8.897532 -0.756154 -1.919207
v -8.897532 -0.756154 -1.919207
v -8.758789 -0.845064 -6.123178
v -14.007828 -3.086549 -6.736134
v -12.116687 -1.961478 -2.511659
v -12.116687 -1.961478 -2.511659
v -14.007828 -3.086549 -6.736134
v -17.270176 -3.282015 -5.348032
v -15.465510 -4.232123 -1.994335
v 0.000000 -0.166812 -6.374865
v 0.000000 -0.890696 -10.816657
v -4.250946 -0.725482 -10.778840
v -4.388849 -0.273453 -6.308056
v -4.388849 -0.273453 -6.308056
v -4.250946 -0.725482 -10.778840
v -8.541137 -1.059272 -10.525640
v -8.758789 -0.845064 -6.123178
v -8.758789 -0.845064 -6.123178
v -8.541137 -1.059272 -10.525640
v -9.899237 -2.285268 -9.445530
v -14.007828 -3.086549 -6.736134
v -14.007828 -3.086549 -6.736134
v -9.899237 -2.285268 -9.445530
v -16.684868 -3.413364 -9.007704
v -17.270176 -3.282015 -5.348032
v 0.000000 -0.890696 -10.816657
v 0.529341 -2.651917 -14.647676
v -4.279350 -3.111340 -16.329651
v -4.250946 -0.725482 -10.778840
v -4.250946 -0.725482 -10.778840
v -4.279350 -3.111340 -16.329651
v -6.155867 -3.002346 -12.868978
v -8.541137 -1.059272 -10.525640
v -8.541137 -1.059272 -10.525640
v -6.155867 -3.002346 -12.868978
v -11.221959 -4.477677 -13.041837
v -9.899237 -2.285268 -9.445530
v -9.899237 -2.285268 -9.445530
v -11.221959 -4.477677 -13.041837
v -14.917682 -4.197418 -12.616364
v -16.684868 -3.413364 -9.007704
v 0.529341 -2.651917 -14.647676
v 0.211350 -5.249965 -16.279398
v -4.341452 -4.517090 -19.087788
v -4.279350 -3.111340 -16.329651
v -4.279350 -3.111340 -16.329651
v -4.341452 -4.517090 -19.087788
v -7.267155 -4.884158 -15.841318
v -6.155867 -3.002346 -12.868978
v -6.155867 -3.002346 -12.868978
v -7.267155 -4.884158 -15.841318
v -10.366476 -5.370136 -15.785015
v -11.221959 -4.477677 -13.041837
v -11.221959 -4.477677 -13.041837
v -10.366476 -5.370136 -15.785015
v -13.255287 -5.372321 -15.013651
v -14.917682 -4.197418 -12.616364
vn 0.0535 0.9975 -0.0466
vn 0.0536 0.9975 -0.0465
vn 0.0175 0.9693 0.2453
vn 0.0174 0.9693 0.2453
vn -0.1249 0.9783 0.1652
vn -0.1248 0.9783 0.1653
vn 0.2043 0.5398 0.8166
vn 0.2044 0.5398 0.8166
vn -0.2299 0.9725 -0.0376
vn -0.2215 0.9397 0.2606
vn -0.2215 0.9397 0.2607
vn -0.1346 0.9674 0.2147
vn 0.1084 0.7702 0.6285
vn -0.3119 0.9497 0.0291
vn -0.3407 0.9151 0.2159
vn -0.3407 0.9151 0.2158
vn -0.3810 0.8964 0.2266
vn -0.3811 0.8964 0.2266
vn -0.3812 0.8963 0.2265
vn -0.5785 0.6484 0.4949
vn -0.6832 0.7247 -0.0894
vn -0.6833 0.7247 -0.0894
vn -0.7188 0.5539 0.4201
vn -0.7189 0.5538 0.4201
vn -0.7189 0.5539 0.4201
vn -0.7012 0.7099 0.0652
vn -0.7012 0.7100 0.0653
vn -0.4054 0.7351 0.5433
vn -0.4052 0.7354 0.5431
vn -0.0408 0.9984 -0.0391
vn -0.0407 0.9984 -0.0391
vn -0.0407 0.9984 -0.0392
vn 0.2380 0.9708 -0.0287
vn 0.2924 0.9280 0.2309
vn 0.6212 0.6993 0.3537
vn -0.0241 0.9739 0.2257
vn 0.2419 0.9412 0.2357
vn 0.2419 0.9412 0.2356
vn 0.4175 0.8957 0.1529
vn 0.4176 0.8957 0.1529
vn 0.5834 0.8099 0.0610
vn 0.1856 0.9285 0.3217
vn 0.0711 0.9401 0.3334
vn 0.0710 0.9401 0.3334
vn 0.3554 0.9144 0.1937
vn 0.5998 0.7241 0.3405
vn 0.5998 0.7241 0.3404
vn -0.2427 0.7573 0.6063
vn 0.1372 0.8565 0.4976
vn 0.1821 0.8752 0.4483
vn 0.1821 0.8752 0.4482
vn 0.7548 0.5727 0.3199
vn 0.7547 0.5727 0.3199
vn -0.0906 0.9916 0.0924
vn -0.0907 0.9916 0.0924
vn -0.1150 0.9638 -0.2405
vn -0.1149 0.9638 -0.2405
vn 0.0360 0.8835 -0.4671
vn 0.0361 0.8835 -0.4671
vn -0.1526 0.7340 -0.6618
vn 0.2916 0.9540 0.0705
vn 0.2915 0.9540 0.0705
vn 0.2915 0.9540 0.0704
vn 0.1789 0.9801 -0.0854
vn 0.1793 0.9801 -0.0851
vn 0.1793 0.9801 -0.0850
vn 0.1025 0.8043 -0.5853
vn 0.1026 0.8043 -0.5853
vn 0.1024 0.8042 -0.5855
vn 0.2508 0.8076 -0.5338
vn 0.2507 0.8075 -0.5339
vn 0.1185 0.9905 -0.0692
vn 0.1183 0.9905 -0.0694
vn 0.2833 0.9564 -0.0715
vn 0.3297 0.7769 -0.5364
vn 0.3298 0.7769 -0.5364
vn 0.1387 0.8632 -0.4854
vn 0.1387 0.8633 -0.4853
vn 0.6766 0.7304 0.0929
vn 0.6766 0.7305 0.0929
vn 0.6112 0.7330 -0.2988
vn 0.6112 0.7329 -0.2987
vn 0.6112 0.7329 -0.2988
vn 0.4131 0.8506 -0.3253
vn 0.2279 0.8924 -0.3894
vn -0.0234 0.9994 -0.0270
vn -0.0234 0.9994 -0.0269
vn -0.1329 0.9907 -0.0276
vn -0.1330 0.9907 -0.0275
vn -0.3694 0.9275 -0.0568
vn -0.3695 0.9275 -0.0568
vn -0.3131 0.9406 0.1310
vn 0.0051 0.9914 -0.1307
vn -0.1075 0.9911 -0.0788
vn -0.1076 0.9911 -0.0787
vn -0.4658 0.8590 -0.2124
vn -0.4658 0.8590 -0.2125
vn -0.1289 0.9916 0.0093
vn 0.0432 0.9146 -0.4020
vn 0.0433 0.9146 -0.4020
vn -0.3465 0.7750 -0.5285
vn -0.3465 0.7750 -0.5284
vn -0.3852 0.7236 -0.5727
vn -0.3851 0.7236 -0.5727
vn -0.1059 0.9167 -0.3853
vn -0.1059 0.9167 -0.3852
vn 0.3323 0.6824 -0.6511
vn -0.5202 0.7824 -0.3423
vn -0.5202 0.7824 -0.3424
vn -0.2063 0.8839 -0.4198
vn -0.0312 0.9219 -0.3861
vn -0.0313 0.9219 -0.3861
vt 0.752940 0.367320
vt 0.693900 0.365550
vt 0.692940 0.423760
vt 0.751150 0.426430
vt 0.751150 0.426430
vt 0.692940 0.423760
vt 0.692920 0.483400
vt 0.749460 0.486600
vt 0.749460 0.486600
vt 0.692920 0.483400
vt 0.692030 0.550090
vt 0.748530 0.550090
vt 0.146700 0.368250
vt 0.155550 0.329510
vt 0.122580 0.324000
vt 0.112020 0.360620
vt 0.693900 0.365550
vt 0.634320 0.363510
vt 0.634010 0.419870
vt 0.692940 0.423760
vt 0.692940 0.423760
vt 0.634010 0.419870
vt 0.636190 0.477270
vt 0.692920 0.483400
vt 0.692920 0.483400
vt 0.636190 0.477270
vt 0.638250 0.538860
vt 0.692030 0.550090
vt 0.155550 0.329510
vt 0.170840 0.295160
vt 0.138850 0.288880
vt 0.122580 0.324000
vt 0.634320 0.363510
vt 0.575210 0.361050
vt 0.574180 0.415730
vt 0.634010 0.419870
vt 0.634010 0.419870
vt 0.574180 0.415730
vt 0.580630 0.469630
vt 0.636190 0.477270
vt 0.636190 0.477270
vt 0.580630 0.469630
vt 0.590980 0.520380
vt 0.638250 0.538860
vt 0.170840 0.295160
vt 0.187670 0.265140
vt 0.160750 0.261640
vt 0.138850 0.288880
vt 0.301260 0.270150
vt 0.307100 0.238120
vt 0.268120 0.226390
vt 0.263150 0.263470
vt 0.263150 0.263470
vt 0.268120 0.226390
vt 0.230950 0.229810
vt 0.224340 0.262920
vt 0.224340 0.262920
vt 0.230950 0.229810
vt 0.199910 0.237520
vt 0.187670 0.265140
vt 0.187670 0.265140
vt 0.199910 0.237520
vt 0.177760 0.245400
vt 0.160750 0.261640
vt 0.752940 0.367320
vt 0.751150 0.426430
vt 0.809370 0.427200
vt 0.812100 0.369000
vt 0.812100 0.369000
vt 0.809370 0.427200
vt 0.868530 0.427270
vt 0.872420 0.370790
vt 0.872420 0.370790
vt 0.868530 0.427270
vt 0.929870 0.428140
vt 0.937820 0.373030
vt 0.239640 0.526750
vt 0.204280 0.514950
vt 0.193170 0.549330
vt 0.227490 0.563490
vt 0.751150 0.426430
vt 0.749460 0.486600
vt 0.805630 0.485960
vt 0.809370 0.427200
vt 0.809370 0.427200
vt 0.805630 0.485960
vt 0.862450 0.483900
vt 0.868530 0.427270
vt 0.868530 0.427270
vt 0.862450 0.483900
vt 0.920120 0.481800
vt 0.929870 0.428140
vt 0.204280 0.514950
vt 0.168050 0.498850
vt 0.159910 0.531510
vt 0.193170 0.549330
vt 0.749460 0.486600
vt 0.748530 0.550090
vt 0.802370 0.546690
vt 0.805630 0.485960
vt 0.805630 0.485960
vt 0.802370 0.546690
vt 0.855930 0.540680
vt 0.862450 0.483900
vt 0.862450 0.483900
vt 0.855930 0.540680
vt 0.906100 0.532620
vt 0.920120 0.481800
vt 0.168050 0.498850
vt 0.136260 0.480570
vt 0.131600 0.511220
vt 0.159910 0.531510
vt 0.146700 0.368250
vt 0.112020 0.360620
vt 0.107870 0.398000
vt 0.141470 0.407430
vt 0.141470 0.407430
vt 0.107870 0.398000
vt 0.107870 0.435980
vt 0.137470 0.446030
vt 0.137470 0.446030
vt 0.107870 0.435980
vt 0.112590 0.467850
vt 0.136260 0.480570
vt 0.136260 0.480570
vt 0.112590 0.467850
vt 0.115060 0.492630
vt 0.131600 0.511220
vt 0.752940 0.367320
vt 0.812100 0.369000
vt 0.812770 0.310700
vt 0.754590 0.308290
vt 0.754590 0.308290
vt 0.812770 0.310700
vt 0.812390 0.251180
vt 0.756060 0.248410
vt 0.756060 0.248410
vt 0.812390 0.251180
vt 0.811020 0.190460
vt 0.757530 0.186780
vt 0.396980 0.423930
vt 0.385810 0.461010
vt 0.417990 0.467380
vt 0.429170 0.432100
vt 0.812100 0.369000
vt 0.872420 0.370790
vt 0.872330 0.313890
vt 0.812770 0.310700
vt 0.812770 0.310700
vt 0.872330 0.313890
vt 0.869410 0.255030
vt 0.812390 0.251180
vt 0.812390 0.251180
vt 0.869410 0.255030
vt 0.864280 0.198200
vt 0.811020 0.190460
vt 0.385810 0.461010
vt 0.371700 0.497510
vt 0.401060 0.501030
vt 0.417990 0.467380
vt 0.872420 0.370790
vt 0.937820 0.373030
vt 0.937280 0.316350
vt 0.872330 0.313890
vt 0.872330 0.313890
vt 0.937280 0.316350
vt 0.928380 0.259000
vt 0.869410 0.255030
vt 0.869410 0.255030
vt 0.928380 0.259000
vt 0.916880 0.207130
vt 0.864280 0.198200
vt 0.371700 0.497510
vt 0.357020 0.534150
vt 0.383580 0.531330
vt 0.401060 0.501030
vt 0.239640 0.526750
vt 0.227490 0.563490
vt 0.267320 0.572020
vt 0.276160 0.533210
vt 0.276160 0.533210
vt 0.267320 0.572020
vt 0.309490 0.572010
vt 0.317930 0.534510
vt 0.317930 0.534510
vt 0.309490 0.572010
vt 0.347040 0.562350
vt 0.357020 0.534150
vt 0.357020 0.534150
vt 0.347040 0.562350
vt 0.370120 0.552220
vt 0.383580 0.531330
vt 0.752940 0.367320
vt 0.754590 0.308290
vt 0.696650 0.307670
vt 0.693900 0.365550
vt 0.693900 0.365550
vt 0.696650 0.307670
vt 0.638370 0.307800
vt 0.634320 0.363510
vt 0.634320 0.363510
vt 0.638370 0.307800
vt 0.582140 0.308340
vt 0.575210 0.361050
vt 0.301260 0.270150
vt 0.337000 0.282220
vt 0.343190 0.252000
vt 0.307100 0.238120
vt 0.754590 0.308290
vt 0.756060 0.248410
vt 0.699770 0.248520
vt 0.696650 0.307670
vt 0.696650 0.307670
vt 0.699770 0.248520
vt 0.644520 0.251370
vt 0.638370 0.307800
vt 0.638370 0.307800
vt 0.644520 0.251370
vt 0.590470 0.256870
vt 0.582140 0.308340
vt 0.337000 0.282220
vt 0.372730 0.295420
vt 0.377420 0.267580
vt 0.343190 0.252000
vt 0.756060 0.248410
vt 0.757530 0.186780
vt 0.703950 0.187960
vt 0.699770 0.248520
vt 0.699770 0.248520
vt 0.703950 0.187960
vt 0.650150 0.192780
vt 0.644520 0.251370
vt 0.644520 0.251370
vt 0.650150 0.192780
vt 0.599560 0.202660
vt 0.590470 0.256870
vt 0.372730 0.295420
vt 0.409180 0.311000
vt 0.408470 0.285210
vt 0.377420 0.267580
vt 0.396980 0.423930
vt 0.429170 0.432100
vt 0.433400 0.394330
vt 0.403940 0.386230
vt 0.403940 0.386230
vt 0.433400 0.394330
vt 0.434770 0.357560
vt 0.407740 0.347830
vt 0.407740 0.347830
vt 0.434770 0.357560
vt 0.432130 0.323060
vt 0.409180 0.311000
vt 0.409180 0.311000
vt 0.432130 0.323060
vt 0.427210 0.300980
vt 0.408470 0.285210
s 1
f 1/1/1 2/2/1 3/3/1
f 1/1/1 3/3/1 4/4/2
f 5/5/3 6/6/4 7/7/4
f 5/5/3 7/7/4 8/8/4
f 9/9/5 10/10/5 11/11/6
f 9/9/5 11/11/6 12/12/5
f 13/13/7 14/14/8 15/15/8
f 13/13/7 15/15/8 16/16/8
f 17/17/9 18/18/9 19/19/9
f 17/17/9 19/19/9 20/20/9
f 21/21/10 22/22/11 23/23/11
f 21/21/10 23/23/11 24/24/10
f 25/25/12 26/26/12 27/27/12
f 25/25/12 27/27/12 28/28/12
f 29/29/13 30/30/13 31/31/13
f 29/29/13 31/31/13 32/32/13
f 33/33/14 34/34/14 35/35/14
f 33/33/14 35/35/14 36/36/14
f 37/37/15 38/38/16 39/39/15
f 37/37/15 39/39/15 40/40/15
f 41/41/17 42/42/18 43/43/19
f 41/41/17 43/43/19 44/44/18
f 45/45/20 46/46/20 47/47/20
f 45/45/20 47/47/20 48/48/20
f 49/49/21 50/50/21 51/51/21
f 49/49/21 51/51/21 52/52/22
f 53/53/23 54/54/24 55/55/24
f 53/53/23 55/55/24 56/56/25
f 57/57/26 58/58/26 59/59/27
f 57/57/26 59/59/27 60/60/26
f 61/61/28 62/62/29 63/63/28
f 61/61/28 63/63/28 64/64/28
f 65/65/30 66/66/31 67/67/32
f 65/65/30 67/67/32 68/68/31
f 69/69/33 70/70/33 71/71/33
f 69/69/33 71/71/33 72/72/33
f 73/73/34 74/74/34 75/75/34
f 73/73/34 75/75/34 76/76/34
f 77/77/35 78/78/35 79/79/35
f 77/77/35 79/79/35 80/80/35
f 81/81/36 82/82/36 83/83/36
f 81/81/36 83/83/36 84/84/36
f 85/85/37 86/86/37 87/87/38
f 85/85/37 87/87/38 88/88/37
f 89/89/39 90/90/40 91/91/39
f 89/89/39 91/91/39 92/92/39
f 93/93/41 94/94/41 95/95/41
f 93/93/41 95/95/41 96/96/41
f 97/97/42 98/98/42 99/99/42
f 97/97/42 99/99/42 100/100/42
f 101/101/43 102/102/43 103/103/44
f 101/101/43 103/103/44 104/104/43
f 105/105/45 106/106/45 107/107/45
f 105/105/45 107/107/45 108/108/45
f 109/109/46 110/110/47 111/111/47
f 109/109/46 111/111/47 112/112/47
f 113/113/48 114/114/48 115/115/48
f 113/113/48 115/115/48 116/116/48
f 117/117/49 118/118/49 119/119/49
f 117/117/49 119/119/49 120/120/49
f 121/121/50 122/122/51 123/123/50
f 121/121/50 123/123/50 124/124/51
f 125/125/52 126/126/53 127/127/52
f 125/125/52 127/127/52 128/128/53
f 129/129/54 130/130/54 131/131/55
f 129/129/54 131/131/55 132/132/54
f 133/133/56 134/134/57 135/135/56
f 133/133/56 135/135/56 136/136/57
f 137/137/58 138/138/58 139/139/59
f 137/137/58 139/139/59 140/140/59
f 141/141/60 142/142/60 143/143/60
f 141/141/60 143/143/60 144/144/60
f 145/145/61 146/146/62 147/147/63
f 145/145/61 147/147/63 148/148/63
f 149/149/64 150/150/65 151/151/66
f 149/149/64 151/151/66 152/152/66
f 153/153/67 154/154/68 155/155/69
f 153/153/67 155/155/69 156/156/68
f 157/157/70 158/158/71 159/159/71
f 157/157/70 159/159/71 160/160/71
f 161/161/72 162/162/72 163/163/73
f 161/161/72 163/163/73 164/164/72
f 165/165/74 166/166/74 167/167/74
f 165/165/74 167/167/74 168/168/74
f 169/169/75 170/170/76 171/171/75
f 169/169/75 171/171/75 172/172/75
f 173/173/77 174/174/78 175/175/78
f 173/173/77 175/175/78 176/176/78
f 177/177/79 178/178/80 179/179/80
f 177/177/79 179/179/80 180/180/80
f 181/181/81 182/182/82 183/183/83
f 181/181/81 183/183/83 184/184/81
f 185/185/84 186/186/84 187/187/84
f 185/185/84 187/187/84 188/188/84
f 189/189/85 190/190/85 191/191/85
f 189/189/85 191/191/85 192/192/85
f 193/193/86 194/194/87 195/195/86
f 193/193/86 195/195/86 196/196/86
f 197/197/88 198/198/88 199/199/89
f 197/197/88 199/199/89 200/200/89
f 201/201/90 202/202/91 203/203/90
f 201/201/90 203/203/90 204/204/90
f 205/205/92 206/206/92 207/207/92
f 205/205/92 207/207/92 208/208/92
f 209/209/93 210/210/93 211/211/93
f 209/209/93 211/211/93 212/212/93
f 213/213/94 214/214/95 215/215/95
f 213/213/94 215/215/95 216/216/95
f 217/217/96 218/218/97 219/219/96
f 217/217/96 219/219/96 220/220/96
f 221/221/98 222/222/98 223/223/98
f 221/221/98 223/223/98 224/224/98
f 225/225/99 226/226/100 227/227/100
f 225/225/99 227/227/100 228/228/100
f 229/229/101 230/230/101 231/231/102
f 229/229/101 231/231/102 232/232/102
f 233/233/103 234/234/103 235/235/103
f 233/233/103 235/235/103 236/236/104
f 237/237/105 238/238/106 239/239/106
f 237/237/105 239/239/106 240/240/106
f 241/241/107 242/242/107 243/243/107
f 241/241/107 243/243/107 244/244/107
f 245/245/108 246/246/109 247/247/108
f 245/245/108 247/247/108 248/248/109
f 249/249/110 250/250/110 251/251/110
f 249/249/110 251/251/110 252/252/110
f 253/253/111 254/254/112 255/255/112
f 253/253/111 255/255/112 256/256/111
